# File created by Blade
# Date/Time:  Wed Sep 24 19:53:44 2014
# Frame Rate: 120.000 fps
#------------------------------------------------------
:FULLY-SPECIFIED
:DEGREES
1670
root -6.064800 32.827222 -4.370291 9.098886 5.482460 -0.286480
Spine -16.106638 -4.702343 4.230424
Head -7.424604 11.468669 15.308463
LeftShoulder 0.201884 3.966357 23.211711
LeftArm 100.994843 -61.973196 -125.268973
LeftForeArm -50.485919 -0.000000 123.935595
LeftHand -4.944724 -0.000000 -24.759266
LeftHandThumb1 -26.253704 0.000000 33.147579
RightShoulder -15.542213 12.293996 -14.783360
RightArm -9.417908 -19.181572 81.129604
RightForeArm -19.358735 -0.000000 17.678739
RightHand -6.749040 0.000000 10.070978
RightHandThumb1 -24.326973 -0.000000 -32.862282
LeftUpLeg -3.504857 6.236856 3.947555
LeftLeg -2.150489 -0.000000 0.000000
LeftFoot -8.858653 3.358156 -18.269323
LeftToeBase 11.656940 -0.000000 -0.000000
RightUpLeg -4.358893 -9.002092 -3.372637
RightLeg 2.121017 -0.000000 -0.000000
RightFoot -7.721688 -6.497223 -13.070129
RightToeBase -0.410210 -0.000000 0.000000
1671
root -6.065954 32.827434 -4.373136 9.096660 5.454394 -0.300387
Spine -16.099664 -4.720921 4.206532
Head -7.409233 11.433395 15.405672
LeftShoulder 0.260164 3.877338 23.192814
LeftArm 100.612047 -61.954467 -124.719172
LeftForeArm -50.418950 -0.000000 123.715054
LeftHand -4.762803 -0.000000 -24.794949
LeftHandThumb1 -26.253704 0.000000 33.147579
RightShoulder -15.518177 12.277220 -14.762109
RightArm -9.406780 -19.252201 81.163654
RightForeArm -19.343832 -0.000000 17.692303
RightHand -6.747104 -0.000000 10.045561
RightHandThumb1 -24.326973 -0.000000 -32.862282
LeftUpLeg -3.480131 6.161205 3.968772
LeftLeg -2.198155 -0.000000 0.000000
LeftFoot -8.867016 3.460164 -18.280998
LeftToeBase 11.687715 -0.000000 -0.000000
RightUpLeg -4.383978 -8.990469 -3.362156
RightLeg 2.155257 -0.000000 -0.000000
RightFoot -7.739430 -6.466924 -13.064258
RightToeBase -0.389168 -0.000000 0.000000
1672
root -6.068283 32.827243 -4.376106 9.088818 5.424538 -0.316474
Spine -16.095157 -4.736848 4.174266
Head -7.366530 11.372240 15.509441
LeftShoulder 0.335122 3.776410 23.196912
LeftArm 99.707289 -62.036539 -123.468263
LeftForeArm -50.310070 -0.000000 123.476498
LeftHand -4.911618 -0.000000 -24.863487
LeftHandThumb1 -26.253704 0.000000 33.147579
RightShoulder -15.479261 12.263139 -14.739695
RightArm -9.411670 -19.296440 81.202647
RightForeArm -19.359080 -0.000000 17.719395
RightHand -6.736215 0.000000 10.036739
RightHandThumb1 -24.326973 -0.000000 -32.862282
LeftUpLeg -3.474372 6.182820 3.983439
LeftLeg -2.198050 -0.000000 0.000000
LeftFoot -8.870960 3.469341 -18.298463
LeftToeBase 11.649686 -0.000000 -0.000000
RightUpLeg -4.399440 -8.972361 -3.347506
RightLeg 2.176860 -0.000000 -0.000000
RightFoot -7.736878 -6.445678 -13.074066
RightToeBase -0.418180 -0.000000 0.000000
1673
root -6.071858 32.827086 -4.377729 9.076778 5.398483 -0.335948
Spine -16.086340 -4.746320 4.128176
Head -7.345186 11.283067 15.632629
LeftShoulder 0.385120 3.763194 23.244259
LeftArm 98.456757 -62.084526 -121.671517
LeftForeArm -49.975841 0.000000 123.249310
LeftHand -4.987312 -0.000000 -24.699577
LeftHandThumb1 -26.253704 0.000000 33.147579
RightShoulder -15.479666 12.229249 -14.722522
RightArm -9.380935 -19.304676 81.246735
RightForeArm -19.424554 -0.000000 17.718344
RightHand -6.766320 0.000000 10.073192
RightHandThumb1 -24.326973 -0.000000 -32.862282
LeftUpLeg -3.465811 6.233275 4.002311
LeftLeg -2.193919 -0.000000 0.000000
LeftFoot -8.878353 3.460928 -18.303159
LeftToeBase 11.660831 -0.000000 -0.000000
RightUpLeg -4.404864 -8.967191 -3.325264
RightLeg 2.190722 -0.000000 -0.000000
RightFoot -7.744669 -6.415976 -13.064608
RightToeBase -0.439792 -0.000000 0.000000
1674
root -6.076880 32.826968 -4.378165 9.056101 5.384120 -0.368626
Spine -16.074793 -4.775245 4.103791
Head -7.320978 11.164173 15.721249
LeftShoulder 0.416106 3.784619 23.326460
LeftArm 96.748100 -62.142057 -119.269571
LeftForeArm -49.497984 -0.000000 123.058252
LeftHand -5.374326 -0.000000 -24.935379
LeftHandThumb1 -26.253704 0.000000 33.147579
RightShoulder -15.476138 12.216945 -14.708663
RightArm -9.360788 -19.344794 81.274378
RightForeArm -19.404442 -0.000000 17.718709
RightHand -6.726633 -0.000000 10.064465
RightHandThumb1 -24.326973 -0.000000 -32.862282
LeftUpLeg -3.469325 6.376172 4.027521
LeftLeg -2.151235 -0.000000 0.000000
LeftFoot -8.873997 3.377448 -18.192018
LeftToeBase 11.584837 -0.000000 -0.000000
RightUpLeg -4.397295 -8.984336 -3.286129
RightLeg 2.200381 -0.000000 -0.000000
RightFoot -7.742910 -6.383481 -13.082480
RightToeBase -0.422919 -0.000000 0.000000
1675
root -6.085674 32.825606 -4.379781 9.046460 5.373122 -0.413154
Spine -16.068413 -4.814641 4.085762
Head -7.316818 11.051514 15.811638
LeftShoulder 0.468790 3.773053 23.489234
LeftArm 94.768231 -62.233792 -116.575116
LeftForeArm -48.699881 -0.000000 122.856310
LeftHand -5.518024 0.000000 -24.967068
LeftHandThumb1 -26.253704 0.000000 33.147579
RightShoulder -15.504925 12.222269 -14.721885
RightArm -9.325757 -19.392981 81.334412
RightForeArm -19.381652 -0.000000 17.673010
RightHand -6.686262 -0.000000 10.089075
RightHandThumb1 -24.326973 -0.000000 -32.862282
LeftUpLeg -3.464966 6.416118 4.084485
LeftLeg -2.150785 -0.000000 0.000000
LeftFoot -8.901535 3.343881 -18.205561
LeftToeBase 11.662410 -0.000000 -0.000000
RightUpLeg -4.403077 -9.143009 -3.216215
RightLeg 2.197837 -0.000000 -0.000000
RightFoot -7.764902 -6.229341 -13.162461
RightToeBase -0.449453 -0.000000 0.000000
